inDegrees=no
num_controls=7
num_derivatives=13
num_iterations=156
num_multipliers=7
num_parameters=0
num_slacks=7
num_states=26
objective=5.708084
objective_accelerations=0.471625
objective_balance=0.049331
objective_effort=0.452134
objective_height=4.710934
objective_ligament=0.024060
solver_duration=1630.404304
status=Solve_Succeeded
success=true
DataType=double
version=3
OpenSimVersion=4.4-2022-07-23-0e9fedc
endheader
time	/jointset/ground_pelvis/pelvis_tilt/value	/jointset/ground_pelvis/pelvis_tx/value	/jointset/ground_pelvis/pelvis_ty/value	/jointset/hip_l/hip_flexion_l/value	/jointset/hip_l/hip_adduction_l/value	/jointset/hip_l/hip_rotation_l/value	/jointset/back/lumbar_extension/value	/jointset/patellofemoral_l/patellar_flexion_l/value	/jointset/knee_l/knee_flexion_l/value	/jointset/knee_l/knee_adduction_l/value	/jointset/knee_l/knee_rotation_l/value	/jointset/ankle_l/ankle_angle_l/value	/jointset/subtalar_l/subtalar_angle_l/value	/jointset/ground_pelvis/pelvis_tilt/speed	/jointset/ground_pelvis/pelvis_tx/speed	/jointset/ground_pelvis/pelvis_ty/speed	/jointset/hip_l/hip_flexion_l/speed	/jointset/hip_l/hip_adduction_l/speed	/jointset/hip_l/hip_rotation_l/speed	/jointset/back/lumbar_extension/speed	/jointset/patellofemoral_l/patellar_flexion_l/speed	/jointset/knee_l/knee_flexion_l/speed	/jointset/knee_l/knee_adduction_l/speed	/jointset/knee_l/knee_rotation_l/speed	/jointset/ankle_l/ankle_angle_l/speed	/jointset/subtalar_l/subtalar_angle_l/speed	/forceset/tau_hip_flexion_l	/forceset/tau_hip_adduction_l	/forceset/tau_hip_rotation_l	/forceset/tau_knee_flexion_l	/forceset/tau_ankle_angle_l	/forceset/tau_subtalar_angle_l	/forceset/tau_lumbar_extension	lambda_cid13_p0	lambda_cid13_p1	lambda_cid13_p2	lambda_cid13_p3	lambda_cid13_p4	lambda_cid13_p5	lambda_cid14_p0	/jointset/ground_pelvis/pelvis_tilt/accel	/jointset/ground_pelvis/pelvis_tx/accel	/jointset/ground_pelvis/pelvis_ty/accel	/jointset/hip_l/hip_flexion_l/accel	/jointset/hip_l/hip_adduction_l/accel	/jointset/hip_l/hip_rotation_l/accel	/jointset/back/lumbar_extension/accel	/jointset/patellofemoral_l/patellar_flexion_l/accel	/jointset/knee_l/knee_flexion_l/accel	/jointset/knee_l/knee_adduction_l/accel	/jointset/knee_l/knee_rotation_l/accel	/jointset/ankle_l/ankle_angle_l/accel	/jointset/subtalar_l/subtalar_angle_l/accel	gamma_cid13_p0	gamma_cid13_p1	gamma_cid13_p2	gamma_cid13_p3	gamma_cid13_p4	gamma_cid13_p5	gamma_cid14_p0
1.5	0.02680296113602743	0.0006387974467756817	0.8656261921656533	0.5987058880371423	-0.3259243450730288	-0.1431466544623553	-0.7868373979383773	0.7220177009271473	0.7220177009274182	-0.1227118718459946	-0.1744623635537025	0.1486550187843507	0.0185279494460479	0.2776189759547759	0.2150986183398166	0.361817607267703	-1.790278476836376	0.09199714461804019	-0.6210606846034812	0.8448176935824763	-1.846044314655519	-1.846044314655594	-0.1145779644511032	0.002804489025737349	-0.4468296551034423	-0.0493460417819265	-0.1811124470457992	0.02339652459624695	-0.002949762747562954	-0.2154494715770239	0.05153218725973442	0.04124280440343669	0.2682339385018139	-25.77043889325074	-16.13306108593654	5.240090550455028	-5.261625330858788	-672.1061029316249	-77.67421293121635	-17.24107396538518	-0.1043682390963842	0.5469377517464403	-0.5441248268587828	-0.5277130921507123	0.4767518811409985	-0.2843692217931718	1.780167936665158	-0.8799692817574717	-0.8799692817574715	-0.1937729702117792	0.08751432473363947	-0.2058187225283379	0.4727737763302846	1.497811210156971e-07	1.235004444700497e-06	-4.647527277696911e-07	1.037394531404119e-07	2.491067215904046e-07	5.353295158483895e-07	1.814766491344542e-07
1.51	0.02957383561114081	0.002816922523844725	0.8692164984791398	0.5807782922248389	-0.3249811238483038	-0.1493717118418391	-0.778301687215064	0.7035153199857757	0.703515319985979	-0.1238680394458426	-0.1744312850792678	0.1441768664412599	0.01805751088844458	0.2765225091293187	0.2205021181296601	0.35617368657316	-1.795011097323808	0.09665212922035622	-0.6238610969103423	0.8622020733913582	-1.85418216598685	-1.854182165986845	-0.116648135358036	0.003436048577721004	-0.448721004667614	-0.0447172699374344	-0.1742696807494581	0.02231639086887973	-0.002933801704171937	-0.2123888459314185	0.05286080134840888	0.04057432207270434	0.261576177866482	-25.15535584656636	-15.97971872427774	5.249091375467748	-5.29234528974582	-668.3221289919264	-77.66693457023071	-17.86920855611925	-0.1172961845986015	0.5334388425605684	-0.584969629153707	-0.4115957185827969	0.4605207426624225	-0.2642491761986316	1.699216349716784	-0.7432733753772544	-0.7432733753652595	-0.212321303184797	0.05462396218460672	-0.1687785361011249	0.461420025689312	1.418611196990347e-07	1.316082919329082e-06	-4.214406794402218e-07	1.164235151013533e-07	2.542834491501627e-07	5.520229900739968e-07	1.820246555075358e-07
1.52	0.0323327433619376	0.005048359148803709	0.8727482767980006	0.5628102583693547	-0.3239912229789787	-0.1556220477326065	-0.7695958040243179	0.6849390444677743	0.6849390444679184	-0.1250446451852038	-0.1743931615709741	0.1396822035099793	0.01763405827672227	0.2752256310907269	0.2257609279178045	0.350112008342549	-1.798366085472978	0.1013330735380957	-0.6261163868598445	0.8788521870689191	-1.860823229980432	-1.860823229980347	-0.1186655923550002	0.004213495799863722	-0.4501317727413664	-0.03994885260571678	-0.167426914453121	0.02123625714150414	-0.002917840660717216	-0.209328220285819	0.05418941543707997	0.03990583974195994	0.2549184172311499	-24.54005418205749	-15.82739221437569	5.259371492881462	-5.354689144708645	-664.5631937841843	-77.69089682735806	-18.48860223001477	-0.1444504817233078	0.5179997514066252	-0.627676334072374	-0.252186624498323	0.481943824225691	-0.1753447503213375	1.633314710400934	-0.5806118142075846	-0.5806118142076011	-0.1832301882180537	0.1166918587655025	-0.1097024244444625	0.5007028737754138	1.238533522760319e-07	1.370720244144533e-06	-3.521160589127211e-07	1.344326331306922e-07	2.364341017446759e-07	5.497205159106739e-07	1.770983687509477e-07
1.53	0.03507756374936511	0.007331607564897509	0.8762173777666322	0.5448158392582062	-0.3229543584219083	-0.1618925694874537	-0.7607270257833845	0.6663040787748362	0.6663040787748459	-0.1262407815137362	-0.1743468055041046	0.135175927141132	0.01725905917146619	0.2737059721666394	0.2308588523918095	0.3436446622905048	-1.800284855930079	0.1060377692793903	-0.6279071562192697	0.8947707185285173	-1.865912835354828	-1.865912835354823	-0.1205500456508201	0.005068949335532568	-0.4510422831950332	-0.035034193233341	-0.1605784426597083	0.020149431458838	-0.002945498797124613	-0.2063243450053799	0.0554808719779887	0.03911662963114956	0.248258788372191	-23.95516854985875	-15.6120650009912	5.253618179242753	-5.341086736075479	-660.9978192612706	-77.61941493910697	-19.08877551494337	-0.1605983697097335	0.5012375130443374	-0.6657579114833413	-0.1267947905170327	0.4642787601333163	-0.168673127211294	1.551210975395139	-0.4346060319671036	-0.4346060319791826	-0.1890866564321459	0.07161178304078142	-0.0695020186847579	0.4891641871287873	9.512733336504263e-08	1.39726384728353e-06	-2.551530804248125e-07	1.580996232327035e-07	1.941195496886163e-07	5.272348465841126e-07	1.663556455440855e-07
